# xmcd CD database file
#
# Track frame offsets:
#	150
#	14002
#	27248
#	42742
#	58746
#	75480
#	91429
#	106931
#	120619
#	135685
#	152639
#	164943
#	180273
#	195107
#
# Disc length: 2905 seconds
#
# Revision: 2
# Processed by: cddbd v1.5.2PL0 Copyright (c) Steve Scherf et al.
# Submitted via: CDex 1.51
#
DISCID=b50b570e
DTITLE=Truck Stop - Wir sind alle Cowboys CD3
DYEAR=2009
DGENRE=Country
TTITLE0=Komm her du bist mein Cowboy
TTITLE1=Der wilde, wilde Westen
TTITLE2=Maschen-Draht-Zaun
TTITLE3=Ich möcht so gern Dave Dudley hör´n
TTITLE4=In der Hitze der Nacht
TTITLE5=Hey, kleiner Cowboy
TTITLE6=Jeans and Country Music
TTITLE7=Mitten aus dem Leben
TTITLE8=Der Sheriff hat heute Geburtstag (Radio-Version)
TTITLE9=Old Texas Town, die Westernstadt (Live)
TTITLE10=Freizeit Cowboy (Live)
TTITLE11=Lady Harley
TTITLE12=Endlich Heim in Hamburg
TTITLE13=Super Hit Medley: Old Texastown, die Westernstadt;Die Frau mit dem Gurt;Wir sind die Cowboys;Easy Rider;Hilly Billy - Country Lilly
EXTD=YEAR: 2009
EXTT0=
EXTT1=
EXTT2=
EXTT3=
EXTT4=
EXTT5=
EXTT6=
EXTT7=
EXTT8=
EXTT9=
EXTT10=
EXTT11=
EXTT12=
EXTT13=
PLAYORDER=
